<svg width="11" height="20" viewBox="0 0 11 20" fill="none" xmlns="http://www.w3.org/2000/svg">
<path d="M10.0245 1.78084C10.0255 1.95632 9.99188 2.13027 9.92553 2.29272C9.85917 2.45517 9.76141 2.60292 9.63783 2.7275L3.51783 8.83417C3.39286 8.95812 3.29367 9.10559 3.22598 9.26807C3.15829 9.43055 3.12343 9.60482 3.12343 9.78084C3.12343 9.95686 3.15829 10.1311 3.22598 10.2936C3.29367 10.4561 3.39286 10.6036 3.51783 10.7275L9.63783 16.8342C9.8889 17.0852 10.03 17.4258 10.03 17.7808C10.03 18.1359 9.8889 18.4764 9.63783 18.7275C9.38676 18.9786 9.04623 19.1196 8.69116 19.1196C8.3361 19.1196 7.99557 18.9786 7.7445 18.7275L1.63783 12.6075C0.907742 11.8476 0.5 10.8346 0.5 9.78084C0.5 8.72703 0.907742 7.71409 1.63783 6.95417L7.7445 0.834175C7.86845 0.709204 8.01592 0.610008 8.1784 0.542317C8.34087 0.474625 8.51515 0.439776 8.69117 0.439776C8.86718 0.439776 9.04146 0.474625 9.20393 0.542317C9.36641 0.610008 9.51388 0.709204 9.63783 0.834175C9.76141 0.958761 9.85917 1.10651 9.92553 1.26896C9.99188 1.43141 10.0255 1.60536 10.0245 1.78084Z" fill="#DC585D"/>
</svg>
