<svg width="10" height="19" viewBox="0 0 10 19" fill="none" xmlns="http://www.w3.org/2000/svg">
<path d="M0.0353156 17.4584C0.0343009 17.2829 0.0679351 17.109 0.134288 16.9465C0.200641 16.7841 0.298407 16.6363 0.421982 16.5118L6.54198 10.4051C6.66695 10.2811 6.76615 10.1337 6.83384 9.97119C6.90153 9.80871 6.93638 9.63443 6.93638 9.45842C6.93638 9.2824 6.90153 9.10813 6.83384 8.94565C6.76615 8.78317 6.66695 8.6357 6.54198 8.51175L0.421983 2.40508C0.170911 2.15401 0.0298614 1.81349 0.0298614 1.45842C0.0298614 1.10335 0.170911 0.762822 0.421983 0.511751C0.673055 0.260679 1.01358 0.119629 1.36865 0.119629C1.72372 0.119629 2.06424 0.260679 2.31532 0.511751L8.42198 6.63175C9.15207 7.39167 9.55981 8.40461 9.55981 9.45842C9.55981 10.5122 9.15207 11.5252 8.42198 12.2851L2.31532 18.4051C2.19136 18.5301 2.0439 18.6292 1.88142 18.6969C1.71894 18.7646 1.54466 18.7995 1.36865 18.7995C1.19263 18.7995 1.01836 18.7646 0.85588 18.6969C0.6934 18.6292 0.545933 18.5301 0.421982 18.4051C0.298407 18.2805 0.200641 18.1327 0.134288 17.9703C0.0679351 17.8078 0.0343009 17.6339 0.0353156 17.4584Z" fill="white"/>
</svg>
