<svg width="24" height="25" viewBox="0 0 24 25" fill="none" xmlns="http://www.w3.org/2000/svg">
<path d="M2.5 12.2988C2.5 7.82049 2.5 5.58132 3.89124 4.19007C5.28249 2.79883 7.52166 2.79883 12 2.79883C16.4783 2.79883 18.7175 2.79883 20.1088 4.19007C21.5 5.58132 21.5 7.82049 21.5 12.2988C21.5 16.7771 21.5 19.0163 20.1088 20.4076C18.7175 21.7988 16.4783 21.7988 12 21.7988C7.52166 21.7988 5.28249 21.7988 3.89124 20.4076C2.5 19.0163 2.5 16.7771 2.5 12.2988Z" stroke="white" stroke-width="1.5" stroke-linejoin="round"/>
<path d="M16.9265 8.3252H13.9816C12.9378 8.3252 12.0894 9.16729 12.0817 10.2111L11.9964 21.7256M10.082 14.3005H14.8847" stroke="white" stroke-width="1.5" stroke-linecap="round" stroke-linejoin="round"/>
</svg>
