<svg width="42" height="42" viewBox="0 0 42 42" fill="none" xmlns="http://www.w3.org/2000/svg">
<path d="M3.5 23.5001V14H38.5V23.5001C38.5 30.5711 38.5 34.1066 36.222 36.3032C33.9439 38.5 30.2775 38.5 22.9444 38.5H19.0556C11.7226 38.5 8.05612 38.5 5.77806 36.3032C3.5 34.1066 3.5 30.5711 3.5 23.5001Z" stroke="#2B2B2B" stroke-width="1.5" stroke-linecap="round" stroke-linejoin="round"/>
<path d="M3.5 14L5.18269 9.96154C6.48771 6.8295 7.14023 5.26347 8.46282 4.38174C9.78542 3.5 11.482 3.5 14.875 3.5H27.125C30.5181 3.5 32.2145 3.5 33.5372 4.38174C34.8598 5.26347 35.5122 6.8295 36.8174 9.96154L38.5 14" stroke="#2B2B2B" stroke-width="1.5" stroke-linecap="round"/>
<path d="M21 14V3.5" stroke="#2B2B2B" stroke-width="1.5" stroke-linecap="round"/>
<path d="M17.5 21H24.5" stroke="#2B2B2B" stroke-width="1.5" stroke-linecap="round"/>
</svg>
