<svg xmlns="http://www.w3.org/2000/svg" width="16" height="15" viewBox="0 0 16 15" fill="none">
  <path d="M7.04894 0.747607C7.3483 -0.173704 8.6517 -0.173704 8.95106 0.747607L10.0206 4.0394C10.1545 4.45143 10.5385 4.73039 10.9717 4.73039H14.4329C15.4016 4.73039 15.8044 5.97 15.0207 6.5394L12.2205 8.57385C11.87 8.82849 11.7234 9.27986 11.8572 9.69188L12.9268 12.9837C13.2261 13.905 12.1717 14.6711 11.388 14.1017L8.58778 12.0673C8.2373 11.8126 7.7627 11.8126 7.41221 12.0673L4.61204 14.1017C3.82833 14.6711 2.77385 13.905 3.0732 12.9837L4.14277 9.69188C4.27665 9.27986 4.12999 8.82849 3.7795 8.57385L0.979333 6.5394C0.195619 5.97 0.598395 4.73039 1.56712 4.73039H5.02832C5.46154 4.73039 5.8455 4.45143 5.97937 4.0394L7.04894 0.747607Z" fill="#F3BD22"/>
</svg>