<svg width="20" height="20" viewBox="0 0 20 20" fill="none" xmlns="http://www.w3.org/2000/svg">
<path d="M13.2312 4.28796C12.788 4.28796 12.5663 4.28795 12.3644 4.21304C12.3363 4.20263 12.3087 4.19118 12.2815 4.17871C12.0857 4.08891 11.9291 3.93219 11.6156 3.61875C10.8942 2.89733 10.5335 2.53661 10.0896 2.50335C10.03 2.49888 9.97 2.49888 9.91037 2.50335C9.46652 2.53661 9.10577 2.89733 8.38439 3.61874C8.07095 3.93219 7.91423 4.08891 7.71848 4.17871C7.69129 4.19118 7.66365 4.20263 7.6356 4.21304C7.43369 4.28795 7.21205 4.28796 6.76878 4.28796H6.68702C5.55608 4.28796 4.99062 4.28795 4.63929 4.63929C4.28795 4.99062 4.28796 5.55608 4.28796 6.68702V6.76878C4.28796 7.21205 4.28795 7.43369 4.21304 7.6356C4.20263 7.66365 4.19118 7.69129 4.17871 7.71848C4.08891 7.91423 3.93219 8.07095 3.61874 8.38439C2.89733 9.10577 2.53661 9.46652 2.50335 9.91037C2.49888 9.97 2.49888 10.03 2.50335 10.0896C2.53661 10.5335 2.89733 10.8942 3.61874 11.6156C3.93219 11.9291 4.08891 12.0857 4.17871 12.2815C4.19118 12.3087 4.20263 12.3363 4.21304 12.3644C4.28795 12.5663 4.28796 12.788 4.28796 13.2312V13.313C4.28796 14.4439 4.28795 15.0094 4.63929 15.3607C4.99062 15.7121 5.55608 15.7121 6.68702 15.7121H6.76878C7.21205 15.7121 7.43369 15.7121 7.6356 15.7869C7.66365 15.7974 7.69129 15.8088 7.71848 15.8213C7.91423 15.9111 8.07095 16.0678 8.38439 16.3812C9.10577 17.1027 9.46652 17.4634 9.91037 17.4966C9.97 17.5011 10.03 17.5011 10.0896 17.4966C10.5335 17.4634 10.8942 17.1027 11.6156 16.3812C11.9291 16.0678 12.0857 15.9111 12.2815 15.8213C12.3087 15.8088 12.3363 15.7974 12.3644 15.7869C12.5663 15.7121 12.788 15.7121 13.2312 15.7121H13.313C14.4439 15.7121 15.0094 15.7121 15.3607 15.3607C15.7121 15.0094 15.7121 14.4439 15.7121 13.313V13.2312C15.7121 12.788 15.7121 12.5663 15.7869 12.3644C15.7974 12.3363 15.8088 12.3087 15.8213 12.2815C15.9111 12.0857 16.0678 11.9291 16.3812 11.6156C17.1027 10.8942 17.4634 10.5335 17.4966 10.0896C17.5011 10.03 17.5011 9.97 17.4966 9.91037C17.4634 9.46652 17.1027 9.10577 16.3812 8.38439C16.0678 8.07095 15.9111 7.91423 15.8213 7.71848C15.8088 7.69129 15.7974 7.66365 15.7869 7.6356C15.7121 7.43369 15.7121 7.21205 15.7121 6.76878V6.68702C15.7121 5.55608 15.7121 4.99062 15.3607 4.63929C15.0094 4.28795 14.4439 4.28796 13.313 4.28796H13.2312Z" stroke="#374144" stroke-width="1.5"/>
<path d="M10.1816 13V10C10.1816 9.64645 10.1816 9.46968 10.0718 9.3598C9.96197 9.25 9.78519 9.25 9.43164 9.25" stroke="#374144" stroke-width="1.5" stroke-linecap="round" stroke-linejoin="round"/>
<path d="M9.99414 7H10.0016" stroke="#374144" stroke-width="2" stroke-linecap="round" stroke-linejoin="round"/>
</svg>
