<svg width="24" height="25" viewBox="0 0 24 25" fill="none" xmlns="http://www.w3.org/2000/svg">
<path d="M2.5 12.2988C2.5 7.82049 2.5 5.58132 3.89124 4.19007C5.28249 2.79883 7.52166 2.79883 12 2.79883C16.4783 2.79883 18.7175 2.79883 20.1088 4.19007C21.5 5.58132 21.5 7.82049 21.5 12.2988C21.5 16.7771 21.5 19.0163 20.1088 20.4076C18.7175 21.7988 16.4783 21.7988 12 21.7988C7.52166 21.7988 5.28249 21.7988 3.89124 20.4076C2.5 19.0163 2.5 16.7771 2.5 12.2988Z" stroke="white" stroke-width="1.5" stroke-linejoin="round"/>
<path d="M10.5359 11.3063C9.71585 11.1904 7.84666 11.3822 6.93011 13.077C6.01355 14.7717 6.9373 16.5356 7.51374 17.2057C8.08298 17.8326 9.89226 19.0198 11.8114 17.8607C12.2871 17.5734 12.8797 17.3591 13.552 15.1141L13.4738 6.28027C13.3441 7.25301 14.4186 9.53457 17.478 9.80452" stroke="white" stroke-width="1.5" stroke-linecap="round" stroke-linejoin="round"/>
</svg>
