<svg width="24" height="25" viewBox="0 0 24 25" fill="none" xmlns="http://www.w3.org/2000/svg">
<path d="M12 20.7988C13.8097 20.7988 15.5451 20.62 17.1534 20.2922C19.1623 19.8827 20.1668 19.6779 21.0834 18.4994C22 17.3209 22 15.9681 22 13.2623V11.3353C22 8.62956 22 7.2767 21.0834 6.0982C20.1668 4.91971 19.1623 4.71496 17.1534 4.30545C15.5451 3.9776 13.8097 3.79883 12 3.79883C10.1903 3.79883 8.45489 3.9776 6.84656 4.30545C4.83766 4.71496 3.83321 4.91971 2.9166 6.0982C2 7.2767 2 8.62956 2 11.3353V13.2623C2 15.9681 2 17.3209 2.9166 18.4994C3.83321 19.6779 4.83766 19.8827 6.84656 20.2922C8.45489 20.62 10.1903 20.7988 12 20.7988Z" stroke="white" stroke-width="1.5"/>
<path d="M15.9621 12.6117C15.8137 13.2175 15.0241 13.6526 13.4449 14.5229C11.7272 15.4693 10.8684 15.9426 10.1728 15.7603C9.9372 15.6985 9.7202 15.5899 9.53799 15.4426C9 15.0077 9 14.1047 9 12.2988C9 10.4929 9 9.58995 9.53799 9.15501C9.7202 9.00769 9.9372 8.89912 10.1728 8.83737C10.8684 8.65504 11.7272 9.12828 13.4449 10.0748C15.0241 10.945 15.8137 11.3801 15.9621 11.9859C16.0126 12.1921 16.0126 12.4055 15.9621 12.6117Z" stroke="white" stroke-width="1.5" stroke-linejoin="round"/>
</svg>
